<svg width="55" height="30" viewBox="0 0 55 30" fill="none" xmlns="http://www.w3.org/2000/svg">
<path d="M26.4609 14.8594C26.4609 5.81641 21.0312 0.328125 13.7266 0.328125C6.36328 0.328125 0.953125 5.81641 0.953125 14.8594C0.953125 23.8828 6.36328 29.3906 13.7266 29.3906C21.0312 29.3906 26.4609 23.9023 26.4609 14.8594ZM5.21094 14.8594C5.23047 7.98438 8.84375 4.25391 13.7266 4.27344C18.5703 4.25391 22.1836 7.98438 22.2031 14.8594C22.1836 21.7344 18.5703 25.4648 13.7266 25.4453C8.84375 25.4648 5.23047 21.7344 5.21094 14.8594ZM54.1172 0.71875H49.8984V21.4219H49.625L35.2891 0.71875H31.3047V29H35.6016V8.33594H35.8359L50.1719 29H54.1172V0.71875Z" fill="white" fill-opacity="0.4"/>
</svg>
